<?xml version="1.0"?>
<svg width="512" height="512" xmlns="http://www.w3.org/2000/svg" xmlns:svg="http://www.w3.org/2000/svg" version="1.1" xml:space="preserve">
 <g class="layer">
  <title>Layer 1</title>
  <g id="SVGRepo_bgCarrier" stroke-width="0"/>
  <g id="SVGRepo_tracerCarrier" stroke-linecap="round" stroke-linejoin="round"/>
  <g id="SVGRepo_iconCarrier">
   <style type="text/css">.st0{fill:#C5E1A5;}</style>
   <g id="svg_1">
    <path class="st0" d="m278.17,297.38l-51.2,51.18c0.02,0.6 0.03,1.19 0.03,1.78c0,8.41 -1.59,16.79 -4.77,24.63c-3.2,7.81 -7.92,15.16 -14.37,21.56l-33.67,33.72c-6.46,6.44 -13.77,11.16 -21.61,14.34c-7.86,3.19 -16.22,4.79 -24.61,4.79c-8.38,0 -16.75,-1.6 -24.59,-4.75c-7.85,-3.22 -15.16,-7.94 -21.63,-14.38c-6.44,-6.44 -11.16,-13.75 -14.34,-21.59s-4.78,-16.22 -4.78,-24.63c0,-8.37 1.59,-16.75 4.78,-24.59s7.9,-15.16 14.34,-21.63l33.72,-33.68c6.44,-6.41 13.73,-11.16 21.59,-14.35c7.83,-3.19 16.22,-4.78 24.6,-4.78c0.59,0 1.18,0.03 1.76,0.06l51.21,-51.23c-1.6,-0.74 -3.21,-1.42 -4.85,-2.08c-15.42,-6.25 -31.78,-9.37 -48.12,-9.37s-32.72,3.12 -48.13,9.37c-15.42,6.25 -29.9,15.69 -42.36,28.09l-33.69,33.72c-12.43,12.41 -21.85,26.91 -28.1,42.35s-9.38,31.78 -9.38,48.12s3.13,32.72 9.38,48.16c6.25,15.4 15.67,29.9 28.1,42.31c12.43,12.47 26.93,21.91 42.35,28.13c15.44,6.28 31.8,9.37 48.14,9.37c16.36,0 32.72,-3.09 48.14,-9.37c15.42,-6.22 29.92,-15.66 42.34,-28.13l33.71,-33.66c12.42,-12.46 21.84,-26.93 28.11,-42.34c6.26,-15.47 9.35,-31.81 9.37,-48.16c-0.02,-16.31 -3.11,-32.68 -9.37,-48.15c-0.68,-1.6 -1.38,-3.22 -2.1,-4.81z" id="svg_2"/>
    <path class="st0" d="m502.63,79.84c-6.25,-15.43 -15.68,-29.93 -28.11,-42.36c-12.43,-12.42 -26.93,-21.85 -42.36,-28.1c-15.43,-6.25 -31.78,-9.38 -48.13,-9.38s-32.72,3.13 -48.14,9.38s-29.92,15.68 -42.34,28.1l-33.71,33.71c-12.42,12.4 -21.84,26.9 -28.11,42.34c-6.26,15.41 -9.35,31.78 -9.35,48.14c0,16.35 3.09,32.71 9.35,48.14c0.68,1.63 1.36,3.22 2.1,4.83l51.2,-51.2c-0.02,-0.58 -0.03,-1.16 -0.03,-1.77c0,-8.39 1.59,-16.78 4.78,-24.61c3.19,-7.84 7.91,-15.15 14.36,-21.62l33.67,-33.69c6.45,-6.41 13.77,-11.14 21.63,-14.34c7.81,-3.16 16.2,-4.79 24.59,-4.79c8.41,0 16.75,1.63 24.63,4.79c7.81,3.2 15.14,7.93 21.59,14.34c6.44,6.47 11.16,13.78 14.34,21.62c3.16,7.85 4.79,16.22 4.79,24.6c0,8.39 -1.63,16.75 -4.79,24.62c-3.18,7.85 -7.9,15.16 -14.34,21.6l-33.69,33.69c-6.44,6.43 -13.76,11.15 -21.62,14.34c-7.83,3.19 -16.21,4.78 -24.6,4.78c-0.59,0 -1.18,-0.02 -1.76,-0.03l-51.21,51.22c1.6,0.72 3.21,1.42 4.82,2.06c15.45,6.28 31.81,9.41 48.15,9.41s32.72,-3.13 48.13,-9.41c15.42,-6.25 29.9,-15.67 42.36,-28.09l33.68,-33.71c12.44,-12.42 21.86,-26.92 28.11,-42.35c6.25,-15.41 9.38,-31.79 9.38,-48.13s-3.12,-32.72 -9.37,-48.13z" id="svg_3"/>
    <path class="st0" d="m160.22,351.78c12.23,12.25 32.06,12.25 44.28,0l147.28,-147.28c12.22,-12.22 12.25,-32.03 0,-44.28c-12.23,-12.22 -32.06,-12.22 -44.28,0l-147.28,147.31c-12.22,12.22 -12.22,32.03 0,44.25z" id="svg_4"/>
   </g>
  </g>
 </g>
</svg>